<?xml version="1.0" encoding="UTF-8"?>
<!-- Generator: Adobe Illustrator 27.9.0, SVG Export Plug-In . SVG Version: 6.00 Build 0)  -->
<svg xmlns="http://www.w3.org/2000/svg" xmlns:xlink="http://www.w3.org/1999/xlink" version="1.1" id="Layer_1" x="0px" y="0px" viewBox="0 0 1000 80" style="enable-background:new 0 0 1000 80;" xml:space="preserve">
<style type="text/css">
	.st0{fill:#FFFFFF;}
</style>
<g>
	<path class="st0" d="M0,79L28.5,1h25.2L82.6,79H58.8L41.2,24.1h-0.3L23,79H0z M23.8,67.1V50.1h34.5v16.9H23.8z"></path>
	<path class="st0" d="M90.9,79V1h39.7c5.9,0,10.9,1,15.1,3.1c4.2,2.1,7.5,5,9.9,8.8c2.3,3.8,3.5,8.3,3.5,13.5c0,4.9-1,9-3,12.3   c-2,3.3-4.6,5.9-7.9,7.9c-3.3,2-7.1,3.4-11.2,4.2c-4.2,0.9-8.5,1.3-12.9,1.3h-10.8V79H90.9z M113.4,36.4h12.7   c3.7,0,6.5-0.7,8.2-2.1s2.7-3.6,2.7-6.5c0-2.8-0.9-4.9-2.6-6.2c-1.7-1.3-4.5-1.9-8.3-1.9h-12.7V36.4z M138.7,79l-15.8-28.5   l21.2-3.9L163.5,79H138.7z"></path>
	<path class="st0" d="M171.6,79V1h39.7c5.9,0,10.9,1,15.1,3.1c4.2,2.1,7.5,5,9.9,8.8c2.3,3.8,3.5,8.3,3.5,13.5c0,4.9-1,9-3,12.3   c-2,3.3-4.6,5.9-7.9,7.9c-3.3,2-7.1,3.4-11.2,4.2c-4.2,0.9-8.5,1.3-12.9,1.3h-10.8V79H171.6z M194.1,36.4h12.7   c3.7,0,6.5-0.7,8.2-2.1s2.7-3.6,2.7-6.5c0-2.8-0.9-4.9-2.6-6.2c-1.7-1.3-4.5-1.9-8.3-1.9h-12.7V36.4z M219.4,79l-15.8-28.5   l21.2-3.9L244.2,79H219.4z"></path>
	<path class="st0" d="M288.2,80c-8.5,0-15.8-1.7-21.9-5c-6.1-3.3-10.8-8-14.1-14c-3.3-6-4.9-13.1-4.9-21.1s1.7-15.1,5.1-21.1   c3.4-6,8.2-10.6,14.4-13.9C273,1.7,280.1,0,288.2,0c8.5,0,15.8,1.7,21.9,5c6.1,3.3,10.8,7.9,14,13.9c3.3,6,4.9,13,4.9,21.2   c0,8-1.7,15-5.1,21c-3.4,6-8.1,10.7-14.2,13.9C303.6,78.3,296.4,80,288.2,80z M288.2,59.4c3.7,0,6.9-0.6,9.6-1.8   c2.7-1.2,4.7-3.3,6.2-6.1c1.4-2.9,2.2-6.7,2.2-11.5s-0.7-8.6-2.1-11.4c-1.4-2.8-3.4-4.8-6.1-6c-2.7-1.2-5.9-1.8-9.8-1.8   c-3.6,0-6.8,0.6-9.5,1.8c-2.7,1.2-4.7,3.2-6.2,6.1c-1.4,2.8-2.2,6.7-2.2,11.6c0,4.7,0.7,8.5,2.1,11.4c1.4,2.8,3.4,4.8,6.1,6.1   C281.2,58.8,284.4,59.4,288.2,59.4z"></path>
	<path class="st0" d="M358.1,79V55.4L326.7,1h25.9l16.7,33.3h0.4L386.6,1h24.9l-30.9,53.7V79H358.1z"></path>
	<path class="st0" d="M449.9,80c-8.5,0-15.7-1.7-21.9-5c-6.1-3.3-10.8-8-14.1-14c-3.3-6-4.9-13.1-4.9-21.1s1.7-15.1,5.1-21.1   c3.4-6,8.2-10.6,14.4-13.9c6.2-3.3,13.3-4.9,21.4-4.9c8.5,0,15.8,1.7,21.9,5c6.1,3.3,10.8,7.9,14,13.9c3.3,6,4.9,13,4.9,21.2   c0,8-1.7,15-5.1,21c-3.4,6-8.1,10.7-14.2,13.9C465.4,78.3,458.2,80,449.9,80z M449.9,59.4c3.7,0,6.9-0.6,9.6-1.8   c2.7-1.2,4.7-3.3,6.2-6.1c1.4-2.9,2.2-6.7,2.2-11.5s-0.7-8.6-2.1-11.4c-1.4-2.8-3.4-4.8-6.1-6c-2.7-1.2-5.9-1.8-9.8-1.8   c-3.6,0-6.8,0.6-9.5,1.8c-2.7,1.2-4.7,3.2-6.2,6.1c-1.4,2.8-2.2,6.7-2.2,11.6c0,4.7,0.7,8.5,2.1,11.4c1.4,2.8,3.4,4.8,6.1,6.1   C442.9,58.8,446.2,59.4,449.9,59.4z"></path>
</g>
<g>
	<path class="st0" d="M527,22.6V1h17.2v6h-10.3v3.2h9.1v5.1h-9.1v7.3H527z"></path>
	<path class="st0" d="M535,51c-2.4,0-4.4-0.5-6.1-1.4c-1.7-0.9-3-2.2-3.9-3.9c-0.9-1.7-1.4-3.6-1.4-5.8s0.5-4.2,1.4-5.8   c0.9-1.6,2.3-2.9,4-3.8c1.7-0.9,3.7-1.4,6-1.4c2.4,0,4.4,0.5,6.1,1.4c1.7,0.9,3,2.2,3.9,3.8c0.9,1.7,1.4,3.6,1.4,5.9   c0,2.2-0.5,4.2-1.4,5.8c-0.9,1.6-2.3,2.9-4,3.8C539.3,50.6,537.3,51,535,51z M535,44.7c0.9,0,1.7-0.1,2.4-0.4   c0.6-0.3,1.1-0.7,1.5-1.4c0.3-0.7,0.5-1.7,0.5-2.9c0-1.3-0.2-2.2-0.5-2.9c-0.3-0.7-0.8-1.1-1.5-1.4c-0.6-0.3-1.5-0.4-2.4-0.4   c-0.9,0-1.7,0.1-2.3,0.4c-0.7,0.3-1.2,0.7-1.5,1.4c-0.3,0.7-0.5,1.7-0.5,2.9c0,1.2,0.2,2.2,0.5,2.9c0.3,0.7,0.8,1.2,1.5,1.4   C533.2,44.6,534,44.7,535,44.7z"></path>
	<path class="st0" d="M525.4,79V57.4h11.4c1.6,0,3,0.3,4.2,0.9c1.2,0.6,2.1,1.4,2.8,2.5c0.6,1.1,1,2.3,1,3.8c0,1.4-0.3,2.6-0.9,3.5   c-0.6,0.9-1.3,1.6-2.3,2.2c-1,0.5-2,0.9-3.2,1.1c-1.2,0.2-2.4,0.3-3.6,0.3h-2.5V79H525.4z M532.3,67.1h3c0.9,0,1.6-0.2,2.1-0.5   c0.4-0.3,0.7-0.9,0.7-1.6c0-0.7-0.2-1.2-0.6-1.5c-0.4-0.3-1.1-0.5-2.1-0.5h-3V67.1z M538.4,79l-4.1-7.7l6.5-1.1l5.2,8.8H538.4z"></path>
</g>
<g>
	<path class="st0" d="M581.8,79V1h21.4l22.9,37.1h0.2L649.6,1h21.3V79h-22V37.8l-14.9,23.5h-15.3l-14.8-23.5V79H581.8z"></path>
	<path class="st0" d="M679.2,79L707.7,1h25.2L761.8,79H738l-17.6-54.9H720L702.2,79H679.2z M703,67.1V50.1h34.5v16.9H703z"></path>
	<path class="st0" d="M783.6,79V55.4L752.2,1h25.9l16.7,33.3h0.4L812.1,1H837l-30.9,53.7V79H783.6z"></path>
	<path class="st0" d="M875.4,80c-8.5,0-15.8-1.6-21.9-5c-6.1-3.3-10.8-8-14.1-14c-3.3-6-4.9-13.1-4.9-21.2c0-8.1,1.7-15.1,5.1-21.1   c3.4-6,8.2-10.6,14.4-13.9c6.2-3.3,13.3-4.9,21.4-4.9c8.5,0,15.8,1.7,21.9,5c6.1,3.3,10.8,7.9,14,13.9c3.3,6,4.9,13,4.9,21.2   c0,8-1.7,15-5.1,21c-3.4,6-8.1,10.7-14.2,13.9C890.9,78.3,883.7,80,875.4,80z M875.4,59.4c3.7,0,6.9-0.6,9.6-1.8   c2.7-1.2,4.7-3.3,6.2-6.1c1.4-2.9,2.2-6.7,2.2-11.5c0-4.8-0.7-8.6-2.1-11.4c-1.4-2.8-3.4-4.8-6.1-6c-2.7-1.2-5.9-1.8-9.8-1.8   c-3.6,0-6.8,0.6-9.5,1.8c-2.7,1.2-4.7,3.2-6.2,6.1c-1.4,2.8-2.2,6.7-2.2,11.6c0,4.8,0.7,8.5,2.1,11.4c1.4,2.8,3.4,4.8,6.1,6.1   C868.4,58.8,871.7,59.4,875.4,59.4z"></path>
	<path class="st0" d="M927.4,79V1h39.7c5.9,0,10.9,1,15.1,3.1c4.2,2.1,7.5,5,9.9,8.8c2.3,3.8,3.5,8.3,3.5,13.5c0,4.9-1,9-3,12.3   c-2,3.3-4.6,5.9-7.9,7.9c-3.3,2-7.1,3.4-11.2,4.2c-4.2,0.9-8.5,1.3-12.9,1.3h-10.8V79H927.4z M949.9,36.4h12.7   c3.7,0,6.5-0.7,8.2-2.1c1.8-1.4,2.7-3.6,2.7-6.5c0-2.8-0.9-4.9-2.6-6.2c-1.7-1.3-4.5-1.9-8.3-1.9h-12.7V36.4z M975.2,79l-15.8-28.5   l21.2-3.9L1000,79H975.2z"></path>
</g>
</svg>
