<?xml version="1.0" encoding="UTF-8"?>
<!-- Generator: Adobe Illustrator 27.9.0, SVG Export Plug-In . SVG Version: 6.00 Build 0)  -->
<svg xmlns="http://www.w3.org/2000/svg" xmlns:xlink="http://www.w3.org/1999/xlink" version="1.1" id="Layer_1" x="0px" y="0px" viewBox="0 0 1000 360" style="enable-background:new 0 0 1000 360;" xml:space="preserve">
<style type="text/css">
	.st0{fill:#04395E;}
	.st1{fill:#E3170A;}
</style>
<g>
	<path class="st0" d="M0,161L58.1,2h51.3l59,159h-48.5l-35.8-112h-0.7L47,161H0z M48.5,136.7v-34.5h70.3v34.5H48.5z"></path>
	<path class="st0" d="M185.3,161V2h81c11.9,0,22.2,2.1,30.8,6.4c8.6,4.2,15.3,10.2,20.1,17.9c4.8,7.7,7.1,16.9,7.1,27.5   c0,10-2,18.4-6,25.1c-4,6.7-9.4,12.1-16.1,16.1c-6.7,4-14.4,6.9-22.9,8.6c-8.5,1.7-17.3,2.6-26.2,2.6h-22V161H185.3z M231.1,74.3   H257c7.6,0,13.2-1.4,16.8-4.3c3.6-2.9,5.4-7.3,5.4-13.2c0-5.8-1.8-10-5.3-12.6c-3.6-2.6-9.2-4-16.9-4h-25.9V74.3z M282.6,161   l-32.2-58.1l43.1-8l39.7,66.1H282.6z"></path>
	<path class="st0" d="M349.7,161V2h81c11.9,0,22.2,2.1,30.8,6.4c8.6,4.2,15.3,10.2,20.1,17.9c4.8,7.7,7.1,16.9,7.1,27.5   c0,10-2,18.4-6,25.1c-4,6.7-9.4,12.1-16.1,16.1c-6.7,4-14.4,6.9-22.9,8.6c-8.5,1.7-17.3,2.6-26.2,2.6h-22V161H349.7z M395.6,74.3   h25.9c7.6,0,13.2-1.4,16.8-4.3c3.6-2.9,5.4-7.3,5.4-13.2c0-5.8-1.8-10-5.3-12.6c-3.6-2.6-9.2-4-16.9-4h-25.9V74.3z M447,161   l-32.2-58.1l43.1-8l39.7,66.1H447z"></path>
	<path class="st0" d="M587.2,163.1c-17.2,0-32.1-3.4-44.6-10.1c-12.5-6.7-22-16.2-28.7-28.5c-6.7-12.3-10-26.6-10-43.1   s3.5-30.8,10.4-43c7-12.2,16.7-21.6,29.3-28.3c12.6-6.7,27.1-10,43.5-10c17.4,0,32.3,3.4,44.7,10.1c12.4,6.7,21.9,16.2,28.6,28.4   c6.7,12.2,10,26.6,10,43.3c0,16.4-3.4,30.7-10.3,42.9c-6.9,12.3-16.6,21.7-29,28.4C618.6,159.7,604,163.1,587.2,163.1z M587.2,121   c7.6,0,14.1-1.2,19.5-3.7c5.4-2.5,9.6-6.7,12.6-12.5c2.9-5.8,4.4-13.7,4.4-23.5s-1.4-17.6-4.2-23.3c-2.8-5.7-6.9-9.8-12.4-12.3   c-5.4-2.5-12.1-3.7-20-3.7c-7.4,0-13.8,1.2-19.3,3.7c-5.4,2.5-9.6,6.6-12.6,12.4c-2.9,5.8-4.4,13.6-4.4,23.6   c0,9.7,1.4,17.4,4.2,23.2c2.8,5.8,6.9,9.9,12.4,12.4C572.9,119.8,579.5,121,587.2,121z"></path>
	<path class="st0" d="M729.6,161v-48.1L665.7,2h52.8l34,67.9h0.9L787.7,2h50.8l-63.1,109.5V161H729.6z"></path>
	<path class="st0" d="M916.8,163.1c-17.2,0-32.1-3.4-44.6-10.1c-12.5-6.7-22-16.2-28.7-28.5c-6.7-12.3-10-26.6-10-43.1   s3.5-30.8,10.4-43c7-12.2,16.7-21.6,29.3-28.3c12.5-6.7,27.1-10,43.5-10c17.4,0,32.3,3.4,44.7,10.1c12.4,6.7,21.9,16.2,28.6,28.4   c6.7,12.2,10,26.6,10,43.3c0,16.4-3.4,30.7-10.3,42.9c-6.9,12.3-16.6,21.7-29,28.4C948.2,159.7,933.5,163.1,916.8,163.1z    M916.8,121c7.6,0,14.1-1.2,19.5-3.7c5.4-2.5,9.6-6.7,12.6-12.5c2.9-5.8,4.4-13.7,4.4-23.5s-1.4-17.6-4.2-23.3   c-2.8-5.7-6.9-9.8-12.4-12.3c-5.4-2.5-12.1-3.7-20-3.7c-7.4,0-13.8,1.2-19.3,3.7c-5.4,2.5-9.6,6.6-12.6,12.4   c-2.9,5.8-4.4,13.6-4.4,23.6c0,9.7,1.4,17.4,4.2,23.2c2.8,5.8,6.9,9.9,12.4,12.4C902.5,119.8,909,121,916.8,121z"></path>
</g>
<g>
	<g>
		<path class="st0" d="M116.1,358V199h43.5l46.7,75.6h0.5l47.4-75.6h43.3v159h-44.9v-84l-30.4,47.9h-31.1L161,273.9v84H116.1z"></path>
		<path class="st0" d="M314.5,358l58.1-159h51.3l59,159h-48.5l-35.8-112h-0.7l-36.3,112H314.5z M363.1,333.7v-34.5h70.3v34.5H363.1z    "></path>
		<path class="st0" d="M527.3,358v-48.1l-64-110.8h52.8l34,67.9h0.9l34.2-67.9h50.8l-63.1,109.5V358H527.3z"></path>
		<path class="st0" d="M714.4,360c-17.2,0-32.1-3.4-44.6-10.1c-12.5-6.7-22-16.2-28.7-28.5c-6.7-12.3-10-26.6-10-43.2    c0-16.5,3.5-30.8,10.4-43c7-12.2,16.7-21.6,29.3-28.3c12.6-6.7,27.1-10,43.5-10c17.4,0,32.3,3.4,44.7,10.1    c12.4,6.7,21.9,16.2,28.6,28.4c6.7,12.2,10,26.6,10,43.3c0,16.4-3.4,30.7-10.3,42.9c-6.9,12.3-16.6,21.7-29,28.4    C745.8,356.7,731.2,360,714.4,360z M714.4,318c7.6,0,14.1-1.3,19.5-3.7c5.4-2.5,9.6-6.7,12.6-12.5c2.9-5.8,4.4-13.7,4.4-23.5    c0-9.8-1.4-17.6-4.2-23.3c-2.8-5.7-6.9-9.8-12.4-12.3c-5.4-2.5-12.1-3.7-20-3.7c-7.4,0-13.8,1.3-19.3,3.7    c-5.4,2.5-9.6,6.6-12.6,12.4c-2.9,5.8-4.4,13.6-4.4,23.6c0,9.7,1.4,17.4,4.2,23.2c2.8,5.8,6.9,9.9,12.4,12.4    C700.1,316.7,706.7,318,714.4,318z"></path>
		<path class="st0" d="M820.3,358V199h81c11.9,0,22.2,2.1,30.8,6.4c8.6,4.2,15.3,10.2,20.1,17.9c4.8,7.7,7.1,16.9,7.1,27.5    c0,10-2,18.4-6,25.1c-4,6.7-9.4,12.1-16.1,16.1c-6.7,4-14.4,6.9-22.9,8.6c-8.5,1.7-17.3,2.6-26.2,2.6h-22V358H820.3z M866.1,271.2    H892c7.6,0,13.2-1.4,16.8-4.3c3.6-2.9,5.4-7.3,5.4-13.2c0-5.8-1.8-10-5.3-12.6c-3.6-2.7-9.2-4-16.9-4h-25.9V271.2z M917.6,358    l-32.2-58.1l43.1-7.9l39.7,66.1H917.6z"></path>
	</g>
	<g>
		<path class="st1" d="M38.7,242.9V199h35v12.2H52.7v6.5h18.6V228H52.7v14.9H38.7z"></path>
		<path class="st1" d="M55,301c-4.8,0-9-0.9-12.5-2.8c-3.5-1.9-6.1-4.5-8-7.9c-1.8-3.4-2.8-7.4-2.8-11.9c0-4.6,1-8.5,2.9-11.9    c1.9-3.4,4.6-6,8.1-7.8c3.5-1.8,7.6-2.8,12.2-2.8c4.8,0,9,0.9,12.5,2.8c3.5,1.9,6.1,4.5,8,7.8c1.8,3.4,2.8,7.4,2.8,12    c0,4.6-1,8.5-2.9,11.9c-1.9,3.4-4.6,6-8.1,7.8C63.7,300.1,59.7,301,55,301z M55,288.1c1.9,0,3.5-0.3,4.8-0.8c1.3-0.5,2.3-1.5,3-3    c0.7-1.4,1.1-3.4,1.1-6c0-2.6-0.3-4.5-1-5.9c-0.7-1.4-1.7-2.3-3-2.9c-1.3-0.5-3-0.8-4.9-0.8c-1.8,0-3.4,0.3-4.8,0.8    c-1.3,0.5-2.4,1.5-3.1,2.9c-0.7,1.4-1.1,3.4-1.1,6c0,2.5,0.3,4.5,1,5.9c0.7,1.4,1.7,2.4,3,2.9C51.4,287.9,53.1,288.1,55,288.1z"></path>
		<path class="st1" d="M35.5,358V314h23.2c3.3,0,6.2,0.6,8.6,1.8c2.4,1.2,4.3,2.9,5.6,5.1c1.3,2.2,2,4.7,2,7.7    c0,2.9-0.6,5.3-1.8,7.2c-1.2,1.9-2.7,3.4-4.7,4.5s-4.1,1.9-6.5,2.3c-2.4,0.5-4.8,0.7-7.2,0.7h-5.1V358H35.5z M49.5,333.9h6.1    c1.9,0,3.3-0.3,4.2-1c0.9-0.7,1.3-1.7,1.3-3.2c0-1.5-0.4-2.5-1.3-3.1c-0.9-0.6-2.3-0.9-4.3-0.9h-6.1V333.9z M61.9,358l-8.4-15.6    l13.2-2.3l10.6,18H61.9z"></path>
	</g>
</g>
</svg>
